<mxfile host="app.diagrams.net" modified="2021-08-17T12:40:33.216Z" agent="5.0 (Macintosh; Intel Mac OS X 10_15_7) AppleWebKit/537.36 (KHTML, like Gecko) Chrome/92.0.4515.159 Safari/537.36" etag="lWhbtDh7cbCHpogZRokt" version="14.9.7" type="github">
  <diagram id="a2Y29zHC_EVM1_6E2UDm" name="Page-1">
    <mxGraphModel dx="396" dy="488" grid="1" gridSize="10" guides="1" tooltips="1" connect="1" arrows="1" fold="1" page="1" pageScale="1" pageWidth="827" pageHeight="1169" math="0" shadow="0">
      <root>
        <mxCell id="0" />
        <mxCell id="1" parent="0" />
        <mxCell id="GCy-NUg-l58ztebUrBJ1-1" value="killer" style="swimlane;fontStyle=0;align=center;verticalAlign=top;childLayout=stackLayout;horizontal=1;startSize=26;horizontalStack=0;resizeParent=1;resizeLast=0;collapsible=1;marginBottom=0;rounded=0;shadow=0;strokeWidth=1;fillColor=#60a917;strokeColor=#2D7600;fontColor=#ffffff;fontSize=17;" parent="1" vertex="1">
          <mxGeometry x="310" y="370" width="160" height="220" as="geometry">
            <mxRectangle x="130" y="380" width="160" height="26" as="alternateBounds" />
          </mxGeometry>
        </mxCell>
        <mxCell id="GCy-NUg-l58ztebUrBJ1-2" value="project_id" style="text;align=left;verticalAlign=top;spacingLeft=4;spacingRight=4;overflow=hidden;rotatable=0;points=[[0,0.5],[1,0.5]];portConstraint=eastwest;" parent="GCy-NUg-l58ztebUrBJ1-1" vertex="1">
          <mxGeometry y="26" width="160" height="26" as="geometry" />
        </mxCell>
        <mxCell id="GCy-NUg-l58ztebUrBJ1-3" value="budget_id" style="text;align=left;verticalAlign=top;spacingLeft=4;spacingRight=4;overflow=hidden;rotatable=0;points=[[0,0.5],[1,0.5]];portConstraint=eastwest;rounded=0;shadow=0;html=0;" parent="GCy-NUg-l58ztebUrBJ1-1" vertex="1">
          <mxGeometry y="52" width="160" height="26" as="geometry" />
        </mxCell>
        <mxCell id="GCy-NUg-l58ztebUrBJ1-4" value="sku" style="text;align=left;verticalAlign=top;spacingLeft=4;spacingRight=4;overflow=hidden;rotatable=0;points=[[0,0.5],[1,0.5]];portConstraint=eastwest;rounded=0;shadow=0;html=0;" parent="GCy-NUg-l58ztebUrBJ1-1" vertex="1">
          <mxGeometry y="78" width="160" height="22" as="geometry" />
        </mxCell>
        <mxCell id="GCy-NUg-l58ztebUrBJ1-5" value="" style="line;html=1;strokeWidth=1;align=left;verticalAlign=middle;spacingTop=-1;spacingLeft=3;spacingRight=3;rotatable=0;labelPosition=right;points=[];portConstraint=eastwest;" parent="GCy-NUg-l58ztebUrBJ1-1" vertex="1">
          <mxGeometry y="100" width="160" height="8" as="geometry" />
        </mxCell>
        <mxCell id="GCy-NUg-l58ztebUrBJ1-6" value="price" style="text;align=left;verticalAlign=top;spacingLeft=4;spacingRight=4;overflow=hidden;rotatable=0;points=[[0,0.5],[1,0.5]];portConstraint=eastwest;rounded=0;shadow=0;html=0;" parent="GCy-NUg-l58ztebUrBJ1-1" vertex="1">
          <mxGeometry y="108" width="160" height="26" as="geometry" />
        </mxCell>
        <mxCell id="GCy-NUg-l58ztebUrBJ1-7" value="" style="line;html=1;strokeWidth=1;align=left;verticalAlign=middle;spacingTop=-1;spacingLeft=3;spacingRight=3;rotatable=0;labelPosition=right;points=[];portConstraint=eastwest;" parent="GCy-NUg-l58ztebUrBJ1-1" vertex="1">
          <mxGeometry y="134" width="160" height="8" as="geometry" />
        </mxCell>
        <mxCell id="GCy-NUg-l58ztebUrBJ1-8" value="notify_method" style="text;align=left;verticalAlign=top;spacingLeft=4;spacingRight=4;overflow=hidden;rotatable=0;points=[[0,0.5],[1,0.5]];portConstraint=eastwest;rounded=0;shadow=0;html=0;" parent="GCy-NUg-l58ztebUrBJ1-1" vertex="1">
          <mxGeometry y="142" width="160" height="26" as="geometry" />
        </mxCell>
        <mxCell id="GCy-NUg-l58ztebUrBJ1-9" value="notify_detail" style="text;align=left;verticalAlign=top;spacingLeft=4;spacingRight=4;overflow=hidden;rotatable=0;points=[[0,0.5],[1,0.5]];portConstraint=eastwest;rounded=0;shadow=0;html=0;" parent="GCy-NUg-l58ztebUrBJ1-1" vertex="1">
          <mxGeometry y="168" width="160" height="26" as="geometry" />
        </mxCell>
        <mxCell id="GCy-NUg-l58ztebUrBJ1-10" value="notify_frequency" style="text;align=left;verticalAlign=top;spacingLeft=4;spacingRight=4;overflow=hidden;rotatable=0;points=[[0,0.5],[1,0.5]];portConstraint=eastwest;rounded=0;shadow=0;html=0;" parent="GCy-NUg-l58ztebUrBJ1-1" vertex="1">
          <mxGeometry y="194" width="160" height="26" as="geometry" />
        </mxCell>
        <mxCell id="GCy-NUg-l58ztebUrBJ1-11" value="alarm" style="swimlane;fontStyle=0;align=center;verticalAlign=top;childLayout=stackLayout;horizontal=1;startSize=26;horizontalStack=0;resizeParent=1;resizeLast=0;collapsible=1;marginBottom=0;rounded=0;shadow=0;strokeWidth=1;fillColor=#1ba1e2;strokeColor=#006EAF;fontColor=#ffffff;fontSize=17;" parent="1" vertex="1">
          <mxGeometry x="640" y="370" width="160" height="220" as="geometry">
            <mxRectangle x="330" y="360" width="170" height="26" as="alternateBounds" />
          </mxGeometry>
        </mxCell>
        <mxCell id="GCy-NUg-l58ztebUrBJ1-12" value="project_id" style="text;align=left;verticalAlign=top;spacingLeft=4;spacingRight=4;overflow=hidden;rotatable=0;points=[[0,0.5],[1,0.5]];portConstraint=eastwest;rounded=0;shadow=0;html=0;" parent="GCy-NUg-l58ztebUrBJ1-11" vertex="1">
          <mxGeometry y="26" width="160" height="26" as="geometry" />
        </mxCell>
        <mxCell id="GCy-NUg-l58ztebUrBJ1-13" value="project_id" style="text;align=left;verticalAlign=top;spacingLeft=4;spacingRight=4;overflow=hidden;rotatable=0;points=[[0,0.5],[1,0.5]];portConstraint=eastwest;" parent="GCy-NUg-l58ztebUrBJ1-11" vertex="1">
          <mxGeometry y="52" width="160" height="26" as="geometry" />
        </mxCell>
        <mxCell id="GCy-NUg-l58ztebUrBJ1-14" value="sku" style="text;align=left;verticalAlign=top;spacingLeft=4;spacingRight=4;overflow=hidden;rotatable=0;points=[[0,0.5],[1,0.5]];portConstraint=eastwest;rounded=0;shadow=0;html=0;" parent="GCy-NUg-l58ztebUrBJ1-11" vertex="1">
          <mxGeometry y="78" width="160" height="22" as="geometry" />
        </mxCell>
        <mxCell id="GCy-NUg-l58ztebUrBJ1-15" value="" style="line;html=1;strokeWidth=1;align=left;verticalAlign=middle;spacingTop=-1;spacingLeft=3;spacingRight=3;rotatable=0;labelPosition=right;points=[];portConstraint=eastwest;" parent="GCy-NUg-l58ztebUrBJ1-11" vertex="1">
          <mxGeometry y="100" width="160" height="8" as="geometry" />
        </mxCell>
        <mxCell id="GCy-NUg-l58ztebUrBJ1-16" value="price" style="text;align=left;verticalAlign=top;spacingLeft=4;spacingRight=4;overflow=hidden;rotatable=0;points=[[0,0.5],[1,0.5]];portConstraint=eastwest;rounded=0;shadow=0;html=0;" parent="GCy-NUg-l58ztebUrBJ1-11" vertex="1">
          <mxGeometry y="108" width="160" height="26" as="geometry" />
        </mxCell>
        <mxCell id="GCy-NUg-l58ztebUrBJ1-17" value="" style="line;html=1;strokeWidth=1;align=left;verticalAlign=middle;spacingTop=-1;spacingLeft=3;spacingRight=3;rotatable=0;labelPosition=right;points=[];portConstraint=eastwest;" parent="GCy-NUg-l58ztebUrBJ1-11" vertex="1">
          <mxGeometry y="134" width="160" height="8" as="geometry" />
        </mxCell>
        <mxCell id="GCy-NUg-l58ztebUrBJ1-18" value="notify_method" style="text;align=left;verticalAlign=top;spacingLeft=4;spacingRight=4;overflow=hidden;rotatable=0;points=[[0,0.5],[1,0.5]];portConstraint=eastwest;rounded=0;shadow=0;html=0;" parent="GCy-NUg-l58ztebUrBJ1-11" vertex="1">
          <mxGeometry y="142" width="160" height="26" as="geometry" />
        </mxCell>
        <mxCell id="GCy-NUg-l58ztebUrBJ1-19" value="notify_detail" style="text;align=left;verticalAlign=top;spacingLeft=4;spacingRight=4;overflow=hidden;rotatable=0;points=[[0,0.5],[1,0.5]];portConstraint=eastwest;rounded=0;shadow=0;html=0;" parent="GCy-NUg-l58ztebUrBJ1-11" vertex="1">
          <mxGeometry y="168" width="160" height="26" as="geometry" />
        </mxCell>
        <mxCell id="GCy-NUg-l58ztebUrBJ1-20" value="notify_frequency" style="text;align=left;verticalAlign=top;spacingLeft=4;spacingRight=4;overflow=hidden;rotatable=0;points=[[0,0.5],[1,0.5]];portConstraint=eastwest;rounded=0;shadow=0;html=0;" parent="GCy-NUg-l58ztebUrBJ1-11" vertex="1">
          <mxGeometry y="194" width="160" height="26" as="geometry" />
        </mxCell>
        <mxCell id="GCy-NUg-l58ztebUrBJ1-21" value="" style="rounded=0;whiteSpace=wrap;html=1;fillColor=#dae8fc;strokeColor=#6c8ebf;" parent="1" vertex="1">
          <mxGeometry x="630" y="960" width="700" height="580" as="geometry" />
        </mxCell>
        <mxCell id="GCy-NUg-l58ztebUrBJ1-22" value="" style="rounded=0;whiteSpace=wrap;html=1;fontSize=16;fillColor=#d5e8d4;strokeColor=#82b366;" parent="1" vertex="1">
          <mxGeometry x="640" y="970" width="650" height="110" as="geometry" />
        </mxCell>
        <mxCell id="GCy-NUg-l58ztebUrBJ1-23" value="budget_rule" style="swimlane;fontStyle=2;align=center;verticalAlign=top;childLayout=stackLayout;horizontal=1;startSize=26;horizontalStack=0;resizeParent=1;resizeLast=0;collapsible=1;marginBottom=0;rounded=0;shadow=0;strokeWidth=1;" parent="1" vertex="1">
          <mxGeometry x="480" y="200" width="160" height="68" as="geometry">
            <mxRectangle x="220" y="120" width="160" height="26" as="alternateBounds" />
          </mxGeometry>
        </mxCell>
        <mxCell id="GCy-NUg-l58ztebUrBJ1-24" value="" style="endArrow=block;endSize=10;endFill=0;shadow=0;strokeWidth=1;rounded=0;edgeStyle=elbowEdgeStyle;elbow=vertical;" parent="1" source="GCy-NUg-l58ztebUrBJ1-1" target="GCy-NUg-l58ztebUrBJ1-23" edge="1">
          <mxGeometry width="160" relative="1" as="geometry">
            <mxPoint x="460" y="213" as="sourcePoint" />
            <mxPoint x="460" y="213" as="targetPoint" />
          </mxGeometry>
        </mxCell>
        <mxCell id="GCy-NUg-l58ztebUrBJ1-25" value="Check时候使用" style="edgeLabel;html=1;align=center;verticalAlign=middle;resizable=0;points=[];fontSize=16;" parent="GCy-NUg-l58ztebUrBJ1-24" vertex="1" connectable="0">
          <mxGeometry x="-0.3529" y="-3" relative="1" as="geometry">
            <mxPoint as="offset" />
          </mxGeometry>
        </mxCell>
        <mxCell id="GCy-NUg-l58ztebUrBJ1-26" value="" style="endArrow=block;endSize=10;endFill=0;shadow=0;strokeWidth=1;rounded=0;edgeStyle=elbowEdgeStyle;elbow=vertical;" parent="1" source="GCy-NUg-l58ztebUrBJ1-11" target="GCy-NUg-l58ztebUrBJ1-23" edge="1">
          <mxGeometry width="160" relative="1" as="geometry">
            <mxPoint x="470" y="383" as="sourcePoint" />
            <mxPoint x="570" y="281" as="targetPoint" />
          </mxGeometry>
        </mxCell>
        <mxCell id="GCy-NUg-l58ztebUrBJ1-27" style="edgeStyle=orthogonalEdgeStyle;curved=1;rounded=0;orthogonalLoop=1;jettySize=auto;html=1;" parent="1" source="GCy-NUg-l58ztebUrBJ1-29" target="GCy-NUg-l58ztebUrBJ1-41" edge="1">
          <mxGeometry relative="1" as="geometry" />
        </mxCell>
        <mxCell id="GCy-NUg-l58ztebUrBJ1-28" value="&lt;font style=&quot;font-size: 18px&quot;&gt;同步预算申请&lt;/font&gt;" style="edgeLabel;html=1;align=center;verticalAlign=middle;resizable=0;points=[];" parent="GCy-NUg-l58ztebUrBJ1-27" vertex="1" connectable="0">
          <mxGeometry x="-0.0531" y="1" relative="1" as="geometry">
            <mxPoint as="offset" />
          </mxGeometry>
        </mxCell>
        <mxCell id="GCy-NUg-l58ztebUrBJ1-29" value="&lt;font style=&quot;font-size: 15px&quot;&gt;奖励金出款管理&lt;/font&gt;" style="rounded=0;whiteSpace=wrap;html=1;" parent="1" vertex="1">
          <mxGeometry x="650" y="1010" width="120" height="60" as="geometry" />
        </mxCell>
        <mxCell id="GCy-NUg-l58ztebUrBJ1-30" style="edgeStyle=orthogonalEdgeStyle;curved=1;rounded=0;orthogonalLoop=1;jettySize=auto;html=1;" parent="1" source="GCy-NUg-l58ztebUrBJ1-32" edge="1">
          <mxGeometry relative="1" as="geometry">
            <mxPoint x="900" y="1130" as="targetPoint" />
          </mxGeometry>
        </mxCell>
        <mxCell id="GCy-NUg-l58ztebUrBJ1-31" value="&lt;font style=&quot;font-size: 16px&quot;&gt;同步预算申请&lt;/font&gt;" style="edgeLabel;html=1;align=center;verticalAlign=middle;resizable=0;points=[];" parent="GCy-NUg-l58ztebUrBJ1-30" vertex="1" connectable="0">
          <mxGeometry x="-0.375" y="-5" relative="1" as="geometry">
            <mxPoint as="offset" />
          </mxGeometry>
        </mxCell>
        <mxCell id="GCy-NUg-l58ztebUrBJ1-32" value="&lt;font style=&quot;font-size: 15px&quot;&gt;OA活动预算&lt;br&gt;（活动预算管理、&lt;br&gt;活动间借用）&lt;/font&gt;" style="rounded=0;whiteSpace=wrap;html=1;" parent="1" vertex="1">
          <mxGeometry x="860" y="1010" width="130" height="60" as="geometry" />
        </mxCell>
        <mxCell id="GCy-NUg-l58ztebUrBJ1-33" style="edgeStyle=orthogonalEdgeStyle;rounded=0;orthogonalLoop=1;jettySize=auto;html=1;entryX=0.5;entryY=0;entryDx=0;entryDy=0;" parent="1" source="GCy-NUg-l58ztebUrBJ1-35" target="GCy-NUg-l58ztebUrBJ1-32" edge="1">
          <mxGeometry relative="1" as="geometry" />
        </mxCell>
        <mxCell id="GCy-NUg-l58ztebUrBJ1-34" value="MQ 推送" style="edgeLabel;html=1;align=center;verticalAlign=middle;resizable=0;points=[];" parent="GCy-NUg-l58ztebUrBJ1-33" vertex="1" connectable="0">
          <mxGeometry x="-0.0667" y="2" relative="1" as="geometry">
            <mxPoint x="1" y="-23" as="offset" />
          </mxGeometry>
        </mxCell>
        <mxCell id="GCy-NUg-l58ztebUrBJ1-35" value="&lt;font style=&quot;font-size: 15px&quot;&gt;数仓中台&lt;/font&gt;" style="shape=process;whiteSpace=wrap;html=1;backgroundOutline=1;" parent="1" vertex="1">
          <mxGeometry x="865" y="862" width="120" height="60" as="geometry" />
        </mxCell>
        <mxCell id="GCy-NUg-l58ztebUrBJ1-36" style="edgeStyle=orthogonalEdgeStyle;rounded=0;orthogonalLoop=1;jettySize=auto;html=1;" parent="1" source="GCy-NUg-l58ztebUrBJ1-38" target="GCy-NUg-l58ztebUrBJ1-35" edge="1">
          <mxGeometry relative="1" as="geometry" />
        </mxCell>
        <mxCell id="GCy-NUg-l58ztebUrBJ1-37" value="&lt;font style=&quot;font-size: 15px&quot;&gt;T+1d 定时拉取&lt;/font&gt;" style="edgeLabel;html=1;align=center;verticalAlign=middle;resizable=0;points=[];" parent="GCy-NUg-l58ztebUrBJ1-36" vertex="1" connectable="0">
          <mxGeometry x="-0.16" relative="1" as="geometry">
            <mxPoint as="offset" />
          </mxGeometry>
        </mxCell>
        <mxCell id="GCy-NUg-l58ztebUrBJ1-38" value="&lt;font style=&quot;font-size: 15px&quot;&gt;OA预算申请&amp;amp;审批&lt;/font&gt;" style="shape=process;whiteSpace=wrap;html=1;backgroundOutline=1;" parent="1" vertex="1">
          <mxGeometry x="865" y="752" width="120" height="60" as="geometry" />
        </mxCell>
        <mxCell id="GCy-NUg-l58ztebUrBJ1-39" style="edgeStyle=orthogonalEdgeStyle;curved=1;rounded=0;orthogonalLoop=1;jettySize=auto;html=1;fontSize=16;dashed=1;strokeWidth=2;exitX=1;exitY=0.5;exitDx=0;exitDy=0;" parent="1" source="GCy-NUg-l58ztebUrBJ1-42" target="GCy-NUg-l58ztebUrBJ1-53" edge="1">
          <mxGeometry relative="1" as="geometry" />
        </mxCell>
        <mxCell id="GCy-NUg-l58ztebUrBJ1-40" value="定期校验&lt;br&gt;库存量一致性&amp;nbsp;" style="edgeLabel;html=1;align=center;verticalAlign=middle;resizable=0;points=[];fontSize=16;" parent="GCy-NUg-l58ztebUrBJ1-39" vertex="1" connectable="0">
          <mxGeometry x="-0.2949" y="25" relative="1" as="geometry">
            <mxPoint as="offset" />
          </mxGeometry>
        </mxCell>
        <mxCell id="GCy-NUg-l58ztebUrBJ1-41" value="&lt;font style=&quot;font-size: 16px&quot;&gt;&amp;nbsp;&lt;br&gt;&lt;br&gt;&lt;br&gt;(project_id + budget_id + sku)&lt;/font&gt;" style="rounded=0;whiteSpace=wrap;html=1;fillColor=#1ba1e2;strokeColor=#006EAF;fontColor=#ffffff;" parent="1" vertex="1">
          <mxGeometry x="740" y="1130" width="310" height="100" as="geometry" />
        </mxCell>
        <mxCell id="GCy-NUg-l58ztebUrBJ1-42" value="&lt;font style=&quot;font-size: 15px&quot;&gt;发放log 【记账本】&lt;/font&gt;" style="rounded=0;whiteSpace=wrap;html=1;fillColor=#1ba1e2;strokeColor=#006EAF;fontColor=#ffffff;" parent="1" vertex="1">
          <mxGeometry x="800" y="1450" width="260" height="60" as="geometry" />
        </mxCell>
        <mxCell id="GCy-NUg-l58ztebUrBJ1-43" value="&lt;font style=&quot;font-size: 19px&quot;&gt;发放前&lt;br&gt;CHECK&lt;/font&gt;" style="edgeStyle=orthogonalEdgeStyle;rounded=0;orthogonalLoop=1;jettySize=auto;html=1;entryX=0;entryY=0.5;entryDx=0;entryDy=0;curved=1;" parent="1" source="GCy-NUg-l58ztebUrBJ1-46" target="GCy-NUg-l58ztebUrBJ1-51" edge="1">
          <mxGeometry x="-0.3898" y="-14" relative="1" as="geometry">
            <Array as="points">
              <mxPoint x="600" y="1280" />
              <mxPoint x="600" y="1335" />
            </Array>
            <mxPoint x="24" y="10" as="offset" />
          </mxGeometry>
        </mxCell>
        <mxCell id="GCy-NUg-l58ztebUrBJ1-44" style="edgeStyle=orthogonalEdgeStyle;curved=1;rounded=0;orthogonalLoop=1;jettySize=auto;html=1;entryX=0;entryY=0.5;entryDx=0;entryDy=0;dashed=1;strokeWidth=2;" parent="1" source="GCy-NUg-l58ztebUrBJ1-46" target="GCy-NUg-l58ztebUrBJ1-51" edge="1">
          <mxGeometry relative="1" as="geometry">
            <Array as="points">
              <mxPoint x="620" y="1490" />
              <mxPoint x="620" y="1335" />
            </Array>
          </mxGeometry>
        </mxCell>
        <mxCell id="GCy-NUg-l58ztebUrBJ1-45" value="&lt;font style=&quot;font-size: 21px&quot; color=&quot;#660033&quot;&gt;上报具体发放情况&lt;br&gt;支持按订单回退&lt;/font&gt;" style="edgeLabel;html=1;align=center;verticalAlign=middle;resizable=0;points=[];" parent="GCy-NUg-l58ztebUrBJ1-44" vertex="1" connectable="0">
          <mxGeometry x="-0.1342" y="2" relative="1" as="geometry">
            <mxPoint x="-8" y="-2" as="offset" />
          </mxGeometry>
        </mxCell>
        <mxCell id="GCy-NUg-l58ztebUrBJ1-46" value="&lt;font style=&quot;font-size: 29px&quot;&gt;使用业务方&lt;/font&gt;" style="rounded=0;whiteSpace=wrap;html=1;" parent="1" vertex="1">
          <mxGeometry x="330" y="1050" width="180" height="460" as="geometry" />
        </mxCell>
        <mxCell id="GCy-NUg-l58ztebUrBJ1-47" value="&lt;span&gt;&lt;font style=&quot;font-size: 15px&quot;&gt;预算详情数据&lt;/font&gt;&lt;/span&gt;" style="rounded=0;whiteSpace=wrap;html=1;" parent="1" vertex="1">
          <mxGeometry x="768" y="1150" width="110" height="40" as="geometry" />
        </mxCell>
        <mxCell id="GCy-NUg-l58ztebUrBJ1-48" value="&lt;span&gt;&lt;font style=&quot;font-size: 15px&quot;&gt;预算规则配置&lt;/font&gt;&lt;/span&gt;" style="rounded=0;whiteSpace=wrap;html=1;" parent="1" vertex="1">
          <mxGeometry x="920" y="1150" width="120" height="40" as="geometry" />
        </mxCell>
        <mxCell id="GCy-NUg-l58ztebUrBJ1-49" style="edgeStyle=orthogonalEdgeStyle;curved=1;rounded=0;orthogonalLoop=1;jettySize=auto;html=1;" parent="1" source="GCy-NUg-l58ztebUrBJ1-51" target="GCy-NUg-l58ztebUrBJ1-41" edge="1">
          <mxGeometry relative="1" as="geometry" />
        </mxCell>
        <mxCell id="GCy-NUg-l58ztebUrBJ1-50" style="edgeStyle=orthogonalEdgeStyle;curved=1;rounded=0;orthogonalLoop=1;jettySize=auto;html=1;" parent="1" source="GCy-NUg-l58ztebUrBJ1-51" target="GCy-NUg-l58ztebUrBJ1-42" edge="1">
          <mxGeometry relative="1" as="geometry" />
        </mxCell>
        <mxCell id="GCy-NUg-l58ztebUrBJ1-51" value="&lt;font style=&quot;font-size: 18px&quot;&gt;预算控制&lt;/font&gt;" style="rounded=0;whiteSpace=wrap;html=1;fillColor=#d80073;strokeColor=#A50040;fontColor=#ffffff;" parent="1" vertex="1">
          <mxGeometry x="750" y="1280" width="220" height="110" as="geometry" />
        </mxCell>
        <mxCell id="GCy-NUg-l58ztebUrBJ1-52" value="&lt;span style=&quot;font-size: 17px&quot;&gt;校验SKU发放量&lt;br&gt;&amp;nbsp;&amp;amp; &lt;br&gt;规则&lt;br&gt;&lt;/span&gt;" style="edgeStyle=orthogonalEdgeStyle;curved=1;rounded=0;orthogonalLoop=1;jettySize=auto;html=1;entryX=1;entryY=0.5;entryDx=0;entryDy=0;" parent="1" source="GCy-NUg-l58ztebUrBJ1-53" target="GCy-NUg-l58ztebUrBJ1-51" edge="1">
          <mxGeometry relative="1" as="geometry" />
        </mxCell>
        <mxCell id="GCy-NUg-l58ztebUrBJ1-53" value="&lt;font style=&quot;font-size: 15px&quot;&gt;Redis&lt;/font&gt;" style="shape=cylinder3;whiteSpace=wrap;html=1;boundedLbl=1;backgroundOutline=1;size=15;" parent="1" vertex="1">
          <mxGeometry x="1160" y="1260" width="110" height="80" as="geometry" />
        </mxCell>
        <mxCell id="GCy-NUg-l58ztebUrBJ1-54" style="edgeStyle=orthogonalEdgeStyle;curved=1;rounded=0;orthogonalLoop=1;jettySize=auto;html=1;" parent="1" source="GCy-NUg-l58ztebUrBJ1-56" target="GCy-NUg-l58ztebUrBJ1-41" edge="1">
          <mxGeometry relative="1" as="geometry">
            <Array as="points">
              <mxPoint x="1180" y="1100" />
              <mxPoint x="895" y="1100" />
            </Array>
          </mxGeometry>
        </mxCell>
        <mxCell id="GCy-NUg-l58ztebUrBJ1-55" value="配置管控参数" style="edgeLabel;html=1;align=center;verticalAlign=middle;resizable=0;points=[];fontSize=16;" parent="GCy-NUg-l58ztebUrBJ1-54" vertex="1" connectable="0">
          <mxGeometry x="-0.2174" y="1" relative="1" as="geometry">
            <mxPoint as="offset" />
          </mxGeometry>
        </mxCell>
        <mxCell id="GCy-NUg-l58ztebUrBJ1-56" value="&lt;font style=&quot;font-size: 15px&quot;&gt;常规功能配置平台&lt;/font&gt;" style="rounded=0;whiteSpace=wrap;html=1;fillColor=#f5f5f5;strokeColor=#666666;fontColor=#333333;" parent="1" vertex="1">
          <mxGeometry x="1120" y="1010" width="120" height="60" as="geometry" />
        </mxCell>
        <mxCell id="GCy-NUg-l58ztebUrBJ1-57" style="edgeStyle=orthogonalEdgeStyle;curved=1;rounded=0;orthogonalLoop=1;jettySize=auto;html=1;entryX=1.003;entryY=0.435;entryDx=0;entryDy=0;entryPerimeter=0;dashed=1;strokeWidth=2;fontSize=16;shape=flexArrow;exitX=-0.014;exitY=0.474;exitDx=0;exitDy=0;exitPerimeter=0;" parent="1" source="GCy-NUg-l58ztebUrBJ1-58" target="GCy-NUg-l58ztebUrBJ1-21" edge="1">
          <mxGeometry relative="1" as="geometry">
            <Array as="points">
              <mxPoint x="1409" y="1212" />
            </Array>
          </mxGeometry>
        </mxCell>
        <mxCell id="GCy-NUg-l58ztebUrBJ1-58" value="&lt;font style=&quot;font-size: 29px&quot;&gt;管&lt;br&gt;理&lt;br&gt;后&lt;br&gt;台&lt;/font&gt;" style="rounded=0;whiteSpace=wrap;html=1;" parent="1" vertex="1">
          <mxGeometry x="1410" y="950" width="70" height="580" as="geometry" />
        </mxCell>
        <mxCell id="GCy-NUg-l58ztebUrBJ1-59" style="edgeStyle=orthogonalEdgeStyle;curved=1;rounded=0;orthogonalLoop=1;jettySize=auto;html=1;exitX=0.5;exitY=1;exitDx=0;exitDy=0;entryX=0.5;entryY=0;entryDx=0;entryDy=0;strokeWidth=2;fontSize=16;dashed=1;" parent="1" source="GCy-NUg-l58ztebUrBJ1-60" target="GCy-NUg-l58ztebUrBJ1-62" edge="1">
          <mxGeometry relative="1" as="geometry" />
        </mxCell>
        <mxCell id="GCy-NUg-l58ztebUrBJ1-60" value="业务上报" style="rounded=0;whiteSpace=wrap;html=1;fontSize=16;" parent="1" vertex="1">
          <mxGeometry x="290" y="1860" width="120" height="60" as="geometry" />
        </mxCell>
        <mxCell id="GCy-NUg-l58ztebUrBJ1-61" style="edgeStyle=orthogonalEdgeStyle;curved=1;rounded=0;orthogonalLoop=1;jettySize=auto;html=1;strokeWidth=2;fontSize=16;" parent="1" source="GCy-NUg-l58ztebUrBJ1-62" target="GCy-NUg-l58ztebUrBJ1-65" edge="1">
          <mxGeometry relative="1" as="geometry" />
        </mxCell>
        <mxCell id="GCy-NUg-l58ztebUrBJ1-62" value="接收消息&lt;br&gt;(consumer MQ)" style="rounded=0;whiteSpace=wrap;html=1;fontSize=16;" parent="1" vertex="1">
          <mxGeometry x="345" y="2000" width="150" height="70" as="geometry" />
        </mxCell>
        <mxCell id="GCy-NUg-l58ztebUrBJ1-63" style="edgeStyle=orthogonalEdgeStyle;curved=1;rounded=0;orthogonalLoop=1;jettySize=auto;html=1;strokeWidth=2;fontSize=16;" parent="1" source="GCy-NUg-l58ztebUrBJ1-65" target="GCy-NUg-l58ztebUrBJ1-67" edge="1">
          <mxGeometry relative="1" as="geometry" />
        </mxCell>
        <mxCell id="GCy-NUg-l58ztebUrBJ1-64" style="edgeStyle=orthogonalEdgeStyle;curved=1;rounded=0;orthogonalLoop=1;jettySize=auto;html=1;entryX=0.5;entryY=0;entryDx=0;entryDy=0;strokeWidth=2;fontSize=16;exitX=0.5;exitY=1;exitDx=0;exitDy=0;" parent="1" source="GCy-NUg-l58ztebUrBJ1-65" target="GCy-NUg-l58ztebUrBJ1-66" edge="1">
          <mxGeometry relative="1" as="geometry" />
        </mxCell>
        <mxCell id="GCy-NUg-l58ztebUrBJ1-65" value="写 log表" style="rounded=0;whiteSpace=wrap;html=1;fontSize=16;" parent="1" vertex="1">
          <mxGeometry x="345" y="2120" width="150" height="70" as="geometry" />
        </mxCell>
        <mxCell id="GCy-NUg-l58ztebUrBJ1-66" value="获取规则、执行规则" style="rounded=0;whiteSpace=wrap;html=1;fontSize=16;" parent="1" vertex="1">
          <mxGeometry x="460" y="2310" width="110" height="70" as="geometry" />
        </mxCell>
        <mxCell id="GCy-NUg-l58ztebUrBJ1-67" value="Redis 更新剩余" style="shape=cylinder3;whiteSpace=wrap;html=1;boundedLbl=1;backgroundOutline=1;size=15;fontSize=16;" parent="1" vertex="1">
          <mxGeometry x="290" y="2290" width="90" height="70" as="geometry" />
        </mxCell>
        <mxCell id="GCy-NUg-l58ztebUrBJ1-68" style="edgeStyle=orthogonalEdgeStyle;curved=1;rounded=0;orthogonalLoop=1;jettySize=auto;html=1;strokeWidth=2;fontSize=16;exitX=0.5;exitY=1;exitDx=0;exitDy=0;dashed=1;" parent="1" source="GCy-NUg-l58ztebUrBJ1-69" target="GCy-NUg-l58ztebUrBJ1-62" edge="1">
          <mxGeometry relative="1" as="geometry" />
        </mxCell>
        <mxCell id="GCy-NUg-l58ztebUrBJ1-69" value="业务上报" style="rounded=0;whiteSpace=wrap;html=1;fontSize=16;" parent="1" vertex="1">
          <mxGeometry x="480" y="1860" width="120" height="60" as="geometry" />
        </mxCell>
        <mxCell id="GCy-NUg-l58ztebUrBJ1-70" value="notify时使用" style="text;html=1;align=center;verticalAlign=middle;resizable=0;points=[];autosize=1;fontSize=16;" parent="1" vertex="1">
          <mxGeometry x="600" y="300" width="100" height="20" as="geometry" />
        </mxCell>
        <mxCell id="GCy-NUg-l58ztebUrBJ1-71" value="规则说明" style="text;html=1;align=center;verticalAlign=middle;resizable=0;points=[];autosize=1;fontSize=16;" parent="1" vertex="1">
          <mxGeometry x="500" y="230" width="80" height="20" as="geometry" />
        </mxCell>
        <mxCell id="GCy-NUg-l58ztebUrBJ1-72" style="edgeStyle=orthogonalEdgeStyle;curved=1;rounded=0;orthogonalLoop=1;jettySize=auto;html=1;exitX=0.5;exitY=1;exitDx=0;exitDy=0;entryX=0.5;entryY=0;entryDx=0;entryDy=0;strokeWidth=2;fontSize=16;" parent="1" source="GCy-NUg-l58ztebUrBJ1-74" target="GCy-NUg-l58ztebUrBJ1-75" edge="1">
          <mxGeometry relative="1" as="geometry" />
        </mxCell>
        <mxCell id="GCy-NUg-l58ztebUrBJ1-73" value="project_id + budget_id + sku + num&amp;nbsp;" style="edgeLabel;html=1;align=center;verticalAlign=middle;resizable=0;points=[];fontSize=17;" parent="GCy-NUg-l58ztebUrBJ1-72" vertex="1" connectable="0">
          <mxGeometry x="0.1027" y="1" relative="1" as="geometry">
            <mxPoint x="43" y="-19" as="offset" />
          </mxGeometry>
        </mxCell>
        <mxCell id="GCy-NUg-l58ztebUrBJ1-74" value="权益发放业务方" style="rounded=0;whiteSpace=wrap;html=1;fontSize=16;" parent="1" vertex="1">
          <mxGeometry x="740" y="1910" width="120" height="60" as="geometry" />
        </mxCell>
        <mxCell id="GCy-NUg-l58ztebUrBJ1-75" value="&lt;font style=&quot;font-size: 18px&quot;&gt;预算校验系统&lt;/font&gt;" style="rounded=0;whiteSpace=wrap;html=1;fontSize=16;fillColor=#60a917;strokeColor=#2D7600;fontColor=#ffffff;" parent="1" vertex="1">
          <mxGeometry x="810" y="2070" width="150" height="70" as="geometry" />
        </mxCell>
        <mxCell id="GCy-NUg-l58ztebUrBJ1-76" value="获取killer&lt;br&gt;规则" style="edgeStyle=orthogonalEdgeStyle;curved=1;rounded=0;orthogonalLoop=1;jettySize=auto;html=1;entryX=0.5;entryY=1;entryDx=0;entryDy=0;strokeWidth=2;fontSize=17;" parent="1" source="GCy-NUg-l58ztebUrBJ1-82" target="GCy-NUg-l58ztebUrBJ1-75" edge="1">
          <mxGeometry x="-0.25" y="15" relative="1" as="geometry">
            <mxPoint x="965" y="2310" as="sourcePoint" />
            <Array as="points">
              <mxPoint x="965" y="2210" />
              <mxPoint x="885" y="2210" />
            </Array>
            <mxPoint x="-15" y="-15" as="offset" />
          </mxGeometry>
        </mxCell>
        <mxCell id="GCy-NUg-l58ztebUrBJ1-77" style="edgeStyle=orthogonalEdgeStyle;curved=1;rounded=0;orthogonalLoop=1;jettySize=auto;html=1;entryX=0.5;entryY=1;entryDx=0;entryDy=0;strokeWidth=2;fontSize=17;" parent="1" source="GCy-NUg-l58ztebUrBJ1-79" target="GCy-NUg-l58ztebUrBJ1-75" edge="1">
          <mxGeometry relative="1" as="geometry" />
        </mxCell>
        <mxCell id="GCy-NUg-l58ztebUrBJ1-78" value="获取库存剩余量" style="edgeLabel;html=1;align=center;verticalAlign=middle;resizable=0;points=[];fontSize=17;" parent="GCy-NUg-l58ztebUrBJ1-77" vertex="1" connectable="0">
          <mxGeometry x="-0.456" y="-22" relative="1" as="geometry">
            <mxPoint as="offset" />
          </mxGeometry>
        </mxCell>
        <mxCell id="GCy-NUg-l58ztebUrBJ1-79" value="Redis" style="shape=cylinder3;whiteSpace=wrap;html=1;boundedLbl=1;backgroundOutline=1;size=15;fontSize=16;" parent="1" vertex="1">
          <mxGeometry x="740" y="2290" width="90" height="70" as="geometry" />
        </mxCell>
        <mxCell id="GCy-NUg-l58ztebUrBJ1-80" style="edgeStyle=orthogonalEdgeStyle;curved=1;rounded=0;orthogonalLoop=1;jettySize=auto;html=1;strokeWidth=2;fontSize=16;exitX=0.5;exitY=1;exitDx=0;exitDy=0;" parent="1" source="GCy-NUg-l58ztebUrBJ1-81" target="GCy-NUg-l58ztebUrBJ1-75" edge="1">
          <mxGeometry relative="1" as="geometry" />
        </mxCell>
        <mxCell id="GCy-NUg-l58ztebUrBJ1-81" value="权益发放业务方" style="rounded=0;whiteSpace=wrap;html=1;fontSize=16;" parent="1" vertex="1">
          <mxGeometry x="930" y="1910" width="120" height="60" as="geometry" />
        </mxCell>
        <mxCell id="GCy-NUg-l58ztebUrBJ1-82" value="TiDB" style="shape=cylinder3;whiteSpace=wrap;html=1;boundedLbl=1;backgroundOutline=1;size=15;fontSize=16;" parent="1" vertex="1">
          <mxGeometry x="910" y="2290" width="90" height="70" as="geometry" />
        </mxCell>
      </root>
    </mxGraphModel>
  </diagram>
</mxfile>
